<svg width="30" height="30" fill="none" xmlns="http://www.w3.org/2000/svg"><mask id="a" style="mask-type:luminance" maskUnits="userSpaceOnUse" x="0" y="0" width="30" height="30"><path d="M.981.628h29v29h-29v-29z" fill="#fff"/></mask><g mask="url(#a)" stroke="#F4D059" stroke-width="1.107" stroke-miterlimit="10" stroke-linecap="round" stroke-linejoin="round"><path d="M25.737 5.682a13.893 13.893 0 013.686 9.445c0 7.7-6.242 13.943-13.943 13.943-7.7 0-13.943-6.242-13.943-13.943 0-7.7 6.243-13.943 13.943-13.943.576 0 1.143.035 1.7.103"/><path d="M10.021 6.448c3.961-2.496 9.26-2.02 12.71 1.43 4.003 4.004 4.003 10.495 0 14.5-4.004 4.003-10.495 4.003-14.499 0-3.455-3.456-3.928-8.765-1.42-12.728m18.826-1.895V5.603h2.152"/><path d="M14.095 15.127a1.385 1.385 0 102.77 0 1.385 1.385 0 00-2.77 0zm9.448.009h-.698m-15.427-.018h.699m7.373-8.052v.698m-.018 15.426v-.7m-.97-8.342l-2.26-2.26m4.218 2.26l4.214-4.214"/></g></svg>