<svg width="30" height="30" fill="none" xmlns="http://www.w3.org/2000/svg"><g clip-path="url(#clip0_1_4665)" fill="#F4D059"><path d="M19.01 11.448a1.755 1.755 0 00-2.365-.738l-7.063 3.706a1.75 1.75 0 00-.738 2.365l3.872 7.382a1.755 1.755 0 002.366.738l7.063-3.705a1.751 1.751 0 00.738-2.366l-3.873-7.382zm2.739 8.992l-7.064 3.705a.9.9 0 01-1.214-.378L9.6 16.385a.898.898 0 01.379-1.214l7.063-3.705a.9.9 0 011.214.378l3.872 7.383a.898.898 0 01-.378 1.213z"/><path d="M24.886 14.966l3.85-5.024c.316-.414.367-.96.137-1.425a1.332 1.332 0 00-1.207-.75h-.294v-4.44c0-.93-.755-1.684-1.685-1.684h-3.74c-.93 0-1.684.754-1.684 1.684v4.44h-.295c-.047 0-.09.004-.136.008l-.909-1.736a2.34 2.34 0 00-3.155-.98l-.751.392-.695-1.33a1.678 1.678 0 00-2.265-.704l-1.514.793c-.874-.9-2.17-1.557-3.616-1.808-2.951-.52-5.647.755-6.013 2.844-.371 2.09 1.731 4.21 4.678 4.73.192.034.38.055.567.072l.021.039-.75.392a2.34 2.34 0 00-.985 3.156l7.032 13.408c.611 1.166 2.055 1.577 3.156.985l10.342-5.42a2.34 2.34 0 00.98-3.16l-2.08-3.962a1.368 1.368 0 001.01-.52zM5.48 8.76l.192.363c-2.448-.456-4.205-2.12-3.92-3.732.286-1.62 2.538-2.588 5.025-2.15 1.172.206 2.23.7 2.976 1.383L6.19 6.492a1.682 1.682 0 00-.708 2.268zM25.2 19.844a1.488 1.488 0 01-.623 2.009l-10.337 5.42a1.488 1.488 0 01-2.005-.626L5.2 13.238a1.487 1.487 0 01.626-2.004l1.126-.589a.427.427 0 00.184-.563c.955-.03 1.838-.247 2.567-.618.5.365 1.203.47 1.855.132a1.772 1.772 0 00.747-2.388 1.776 1.776 0 00-2.393-.746 1.773 1.773 0 00-.768 2.337c-.682.311-1.53.469-2.447.435l-.461-.87a.83.83 0 01.35-1.118l5.864-3.074a.83.83 0 011.117.345l.896 1.706c.104.21.37.29.575.179l1.126-.589a1.478 1.478 0 012 .623l.887 1.693a1.35 1.35 0 00-.157 1.813l3.522 4.593 2.785 5.31zM9.882 8.36a.923.923 0 01.427-1.142.893.893 0 01.422-.103c-.12.486-.418.909-.849 1.245zm1.617-.827a.441.441 0 01.05.073.92.92 0 01-.387 1.236.902.902 0 01-.64.077 3.09 3.09 0 00.976-1.386zm11.92 6.913l-3.847-5.024a.498.498 0 01.396-.801h.721a.428.428 0 00.427-.427V3.327c0-.46.375-.831.831-.831h3.74a.83.83 0 01.832.831v4.866c0 .235.192.427.426.427h.721c.192 0 .358.102.444.277a.489.489 0 01-.052.524l-3.85 5.024a.518.518 0 01-.79 0z"/><path d="M16.835 14.437a.427.427 0 00-.508.325l-1.26 5.731a.426.426 0 00.833.184l1.26-5.732a.426.426 0 00-.325-.508zm-1.995 1.406a1.405 1.405 0 00-1.888-.602 1.4 1.4 0 00-.603 1.89c.355.685 1.2.957 1.89.602a1.4 1.4 0 00.602-1.89zm-.992 1.131a.548.548 0 11.236-.74.548.548 0 01-.236.74zm3.985.906a1.401 1.401 0 101.287 2.494 1.401 1.401 0 00-1.287-2.494zm.896 1.733a.55.55 0 11-.501-.975.55.55 0 01.5.975z"/></g><defs><clipPath id="clip0_1_4665"><path fill="#fff" transform="translate(.443 .47)" d="M0 0h29v29H0z"/></clipPath></defs></svg>