<svg width="29" height="30" fill="none" xmlns="http://www.w3.org/2000/svg"><path d="M14.275 18.59a3.63 3.63 0 003.625-3.625 3.63 3.63 0 00-3.625-3.625 3.63 3.63 0 00-3.625 3.625 3.63 3.63 0 003.625 3.625zm0-6.344c1.5 0 2.72 1.22 2.72 2.719 0 1.5-1.22 2.719-2.72 2.719a2.722 2.722 0 01-2.718-2.72 2.721 2.721 0 012.718-2.718z" fill="#F4D059"/><path d="M14.275 16.777c1 0 1.813-.813 1.813-1.812 0-1-.813-1.813-1.813-1.813s-1.812.813-1.812 1.813.813 1.812 1.812 1.812zm0-2.718a.907.907 0 11-.001 1.814.907.907 0 01.001-1.814z" fill="#F4D059"/><path d="M11.298 20.318l.792-.379c.071.032.142.061.214.09l.291.826h3.36l.292-.827c.072-.028.143-.057.214-.089l.792.38 2.376-2.377-.379-.792c.032-.07.061-.142.09-.214l.826-.291v-3.36l-.827-.292a6.108 6.108 0 00-.09-.214l.38-.792-2.377-2.376-.792.379a4.833 4.833 0 00-.213-.089l-.291-.827h-3.36l-.293.828a6.066 6.066 0 00-.213.088l-.792-.378-2.376 2.376.379.792a4.83 4.83 0 00-.09.213l-.826.292v3.36l.827.292c.028.071.058.142.089.213l-.379.792 2.376 2.376zm-2.007-4.315v-2.077l.63-.223.072-.207c.06-.174.132-.349.216-.52l.097-.197-.29-.604 1.47-1.47.604.29.197-.097c.172-.084.347-.157.52-.216l.208-.072.222-.63h2.077l.223.631.207.071c.174.06.349.133.52.217l.197.097.605-.29 1.469 1.47-.29.604.097.197c.085.171.157.346.217.52l.07.207.63.222v2.078l-.63.222-.071.208c-.06.173-.132.348-.217.52l-.096.197.289.604-1.47 1.47-.604-.29-.197.097a4.502 4.502 0 01-.52.216l-.207.071-.222.63h-2.078l-.222-.63-.208-.072a4.415 4.415 0 01-.52-.216l-.197-.097-.604.29-1.469-1.47.29-.604-.097-.197a4.508 4.508 0 01-.217-.52l-.071-.208-.63-.222zM6.12 21.762H1.587c-.75 0-1.36.61-1.36 1.36v4.53c0 .75.61 1.36 1.36 1.36h4.531c.75 0 1.36-.61 1.36-1.36v-4.53c0-.75-.61-1.36-1.36-1.36zm.452 5.89c0 .25-.203.453-.453.453H1.588a.454.454 0 01-.453-.453v-4.53c0-.25.203-.454.453-.454h4.531c.25 0 .453.203.453.453v4.531zM26.963 11.34h-4.531c-.75 0-1.36.61-1.36 1.36v4.53c0 .75.61 1.36 1.36 1.36h4.53c.75 0 1.36-.61 1.36-1.36V12.7c0-.75-.61-1.36-1.36-1.36zm.453 5.89c0 .25-.203.454-.453.454h-4.531a.454.454 0 01-.453-.454V12.7c0-.25.203-.454.453-.454h4.53c.25 0 .454.204.454.453v4.531zM4.307 8.168h4.53c.75 0 1.36-.61 1.36-1.36v-4.53c0-.75-.61-1.36-1.36-1.36h-4.53c-.75 0-1.36.61-1.36 1.36v4.53c0 .75.61 1.36 1.36 1.36zm-.453-5.89c0-.25.203-.454.453-.454h4.53c.25 0 .454.204.454.453V6.81c0 .25-.203.453-.453.453H4.307a.454.454 0 01-.453-.453V2.277z" fill="#F4D059"/><path d="M2.947 26.105l-.586-.585-.64.64 1.226 1.227 3.04-3.04-.641-.64-2.399 2.398zM8.705 3.504l-.64-.64-2.399 2.398-.586-.586-.64.64 1.226 1.227 3.04-3.039zm15.086 12.18l-.586-.586-.64.64 1.226 1.227 3.04-3.04-.642-.64-2.398 2.399zm-2.829 5.186l.22.878 2.575-.644c-2.08 3.223-5.622 5.19-9.482 5.19-1.658 0-3.256-.35-4.748-1.04l-.38.822a12.13 12.13 0 005.128 1.123c4.105 0 7.875-2.057 10.135-5.439l.29 2.324.9-.113-.517-4.132-4.121 1.03zM5.2 16.882l-.88-.21-.553 2.313c-.542-1.341-.82-2.69-.82-4.02 0-1.672.356-3.282 1.058-4.786l-.822-.384a12.143 12.143 0 00-1.142 5.17c0 1.442.297 2.897.877 4.34L.9 18.193l-.438.794 3.742 2.062.996-4.167zM14.98 4.62l-1.474-.983h.769c4.239 0 8.091 2.337 10.052 6.1l.803-.42a12.205 12.205 0 00-10.855-6.586h-.769l1.474-.983-.503-.754-3.285 2.19 3.285 2.19.503-.755z" fill="#F4D059"/></svg>