<svg width="30" height="30" fill="none" xmlns="http://www.w3.org/2000/svg"><g clip-path="url(#clip0_1_4676)" fill="#F4D059"><path d="M16.208 14.484v-1.065h3.251V9.71h-1.84L24.754.426h-4.883l-5.057 6.57L9.756.426H4.874l7.142 9.283h-1.84v3.71h3.25v1.065a7.427 7.427 0 00-6.031 7.29c0 4.095 3.33 7.425 7.425 7.425s7.426-3.33 7.426-7.425c-.006-3.62-2.611-6.639-6.038-7.29zm4.118-13.13h2.543L16.44 9.71h-2.543l1.433-1.863.068-.085 4.928-6.406zm-11.023 0l4.928 6.407-1.269 1.654-6.202-8.06h2.543zM11.1 12.49v-1.858h7.42v1.858H11.1zm3.251 1.858v-.929h.929v.929h-.929zm.465 13.922a6.504 6.504 0 01-6.497-6.496 6.504 6.504 0 016.497-6.497 6.504 6.504 0 016.496 6.497 6.5 6.5 0 01-6.496 6.496z"/><path d="M14.815 16.206a5.574 5.574 0 00-5.568 5.568 5.574 5.574 0 005.568 5.568 5.574 5.574 0 005.568-5.568 5.574 5.574 0 00-5.568-5.568zm0 10.207a4.645 4.645 0 01-4.639-4.64 4.645 4.645 0 014.639-4.638 4.645 4.645 0 014.639 4.639 4.641 4.641 0 01-4.64 4.639z"/><path d="M14.815 17.95l-.838 2.589h-2.72l2.204 1.597-.85 2.588 2.204-1.597 2.203 1.597-.844-2.582 2.204-1.598h-2.72l-.843-2.594zm.436 4.345l-.436-.318-.436.317.164-.51-.436-.316h.538l.164-.51.164.51h.538l-.436.317.176.51zm-.901-11.193h.928v.93h-.928v-.93zm1.858 0h.929v.93h-.929v-.93zm-3.716 0h.93v.93h-.93v-.93z"/></g><defs><clipPath id="clip0_1_4676"><path fill="#fff" transform="translate(.314 .313)" d="M0 0h29v29H0z"/></clipPath></defs></svg>