<svg width="28" height="31" fill="none" xmlns="http://www.w3.org/2000/svg"><path d="M26.92 15.06c-2.677-4.532-7.662-7.347-12.989-7.347-5.335 0-10.311 2.815-12.988 7.348a.683.683 0 000 .701c2.677 4.533 7.653 7.349 12.988 7.349 5.336 0 10.312-2.816 12.989-7.349a.682.682 0 000-.701zm-24.574.36c1.403-2.215 3.425-3.941 5.77-5.03a7.649 7.649 0 00-1.884 5.03c0 1.921.711 3.684 1.884 5.032a13.646 13.646 0 01-5.77-5.031zm11.585 6.315a6.323 6.323 0 01-6.314-6.314 6.323 6.323 0 016.314-6.314 6.323 6.323 0 016.315 6.314 6.323 6.323 0 01-6.315 6.314zm5.816-1.292a7.649 7.649 0 001.883-5.031c0-1.92-.71-3.684-1.883-5.032 2.345 1.09 4.367 2.816 5.77 5.032a13.522 13.522 0 01-5.77 5.03zm-5.816-9.536a4.514 4.514 0 104.514 4.514 4.52 4.52 0 00-4.514-4.514zm0 7.643a3.132 3.132 0 01-3.13-3.13 3.132 3.132 0 013.13-3.129 3.132 3.132 0 013.13 3.13 3.132 3.132 0 01-3.13 3.13zm0-5.982a2.854 2.854 0 00-2.852 2.853c0 .378.314.692.692.692a.697.697 0 00.692-.692c0-.803.656-1.468 1.468-1.468a.697.697 0 00.693-.692.697.697 0 00-.693-.693zm10.192 7.995a.697.697 0 00-.693.692v3.028h-2.437v-.757a.697.697 0 00-.692-.692.697.697 0 00-.692.692v5.853H8.254v-5.853a.697.697 0 00-.692-.692.697.697 0 00-.693.692v.757H4.432v-3.028a.697.697 0 00-.692-.692.697.697 0 00-.693.692v8.816c0 .379.314.693.693.693h20.383a.697.697 0 00.692-.693v-8.816a.697.697 0 00-.692-.692zM6.869 29.379H4.432v-1.163H6.87v1.163zm0-2.548H4.432v-1.163H6.87v1.163zm16.561 2.548h-2.437v-1.163h2.438v1.163zm0-2.548h-2.437v-1.163h2.438v1.163zM3.74 10.27a.697.697 0 00.692-.693V6.55H6.87v.757c0 .379.314.693.693.693a.697.697 0 00.692-.693V1.463H19.61v5.853c0 .378.314.692.692.692a.697.697 0 00.692-.692v-.757h2.438v3.028c0 .378.313.692.692.692a.697.697 0 00.692-.692V.77a.697.697 0 00-.692-.692H3.74a.697.697 0 00-.693.692v8.817c0 .378.305.683.693.683zm17.253-8.807h2.438v1.163h-2.438V1.463zm0 2.548h2.438v1.163h-2.438V4.01zM4.433 1.463h2.436v1.163H4.432V1.463zm0 2.548h2.436v1.163H4.432V4.01z" fill="#F4D059"/></svg>